<svg xmlns="http://www.w3.org/2000/svg" xmlns:xlink="http://www.w3.org/1999/xlink" width="80" zoomAndPan="magnify" viewBox="0 0 60 60" height="80" preserveAspectRatio="xMidYMid meet" version="1.0"><defs><clipPath id="8b8ae8f5c6"><path d="M 1.351562 1.949219 L 58.351562 1.949219 L 58.351562 58.949219 L 1.351562 58.949219 Z M 1.351562 1.949219 " clip-rule="nonzero"/></clipPath><clipPath id="b299baec79"><path d="M 15 44 L 56 44 L 56 58.949219 L 15 58.949219 Z M 15 44 " clip-rule="nonzero"/></clipPath><clipPath id="21022db976"><path d="M 1.351562 30.453125 C 1.351562 28.582031 1.53125 26.726562 1.898438 24.890625 C 2.261719 23.054688 2.804688 21.273438 3.519531 19.542969 C 4.234375 17.816406 5.113281 16.171875 6.152344 14.617188 C 7.191406 13.0625 8.375 11.621094 9.699219 10.296875 C 11.019531 8.976562 12.460938 7.792969 14.015625 6.753906 C 15.574219 5.714844 17.214844 4.835938 18.945312 4.121094 C 20.671875 3.402344 22.457031 2.863281 24.292969 2.496094 C 26.128906 2.132812 27.980469 1.949219 29.851562 1.949219 C 31.722656 1.949219 33.578125 2.132812 35.414062 2.496094 C 37.246094 2.863281 39.03125 3.402344 40.757812 4.121094 C 42.488281 4.835938 44.128906 5.714844 45.6875 6.753906 C 47.242188 7.792969 48.683594 8.976562 50.007812 10.296875 C 51.328125 11.621094 52.511719 13.0625 53.550781 14.617188 C 54.589844 16.171875 55.46875 17.816406 56.183594 19.542969 C 56.902344 21.273438 57.441406 23.054688 57.804688 24.890625 C 58.171875 26.726562 58.355469 28.582031 58.355469 30.453125 C 58.355469 32.324219 58.171875 34.175781 57.804688 36.011719 C 57.441406 37.847656 56.902344 39.628906 56.183594 41.359375 C 55.46875 43.089844 54.589844 44.730469 53.550781 46.285156 C 52.511719 47.84375 51.328125 49.28125 50.007812 50.605469 C 48.683594 51.929688 47.242188 53.109375 45.6875 54.152344 C 44.128906 55.191406 42.488281 56.066406 40.757812 56.785156 C 39.03125 57.5 37.246094 58.042969 35.414062 58.40625 C 33.578125 58.769531 31.722656 58.953125 29.851562 58.953125 C 27.980469 58.953125 26.128906 58.769531 24.292969 58.40625 C 22.457031 58.042969 20.671875 57.5 18.945312 56.785156 C 17.214844 56.066406 15.574219 55.191406 14.015625 54.152344 C 12.460938 53.109375 11.019531 51.929688 9.699219 50.605469 C 8.375 49.28125 7.191406 47.84375 6.152344 46.285156 C 5.113281 44.730469 4.234375 43.089844 3.519531 41.359375 C 2.804688 39.628906 2.261719 37.847656 1.898438 36.011719 C 1.53125 34.175781 1.351562 32.324219 1.351562 30.453125 Z M 1.351562 30.453125 " clip-rule="nonzero"/></clipPath></defs><g clip-path="url(#8b8ae8f5c6)"><path fill="#e9e9e9" d="M 58.355469 30.453125 C 58.355469 31.386719 58.308594 32.316406 58.214844 33.246094 C 58.125 34.175781 57.988281 35.097656 57.804688 36.011719 C 57.625 36.929688 57.398438 37.832031 57.125 38.726562 C 56.855469 39.617188 56.542969 40.496094 56.183594 41.359375 C 55.828125 42.222656 55.429688 43.0625 54.988281 43.886719 C 54.546875 44.710938 54.070312 45.511719 53.550781 46.285156 C 53.03125 47.0625 52.476562 47.8125 51.882812 48.535156 C 51.292969 49.253906 50.664062 49.945312 50.007812 50.605469 C 49.347656 51.265625 48.65625 51.890625 47.933594 52.484375 C 47.210938 53.078125 46.464844 53.632812 45.6875 54.152344 C 44.910156 54.667969 44.109375 55.148438 43.289062 55.589844 C 42.464844 56.027344 41.621094 56.425781 40.757812 56.785156 C 39.898438 57.140625 39.019531 57.457031 38.125 57.726562 C 37.230469 57.996094 36.328125 58.222656 35.414062 58.40625 C 34.496094 58.589844 33.574219 58.726562 32.644531 58.816406 C 31.714844 58.90625 30.785156 58.953125 29.851562 58.953125 C 28.917969 58.953125 27.988281 58.90625 27.058594 58.816406 C 26.128906 58.726562 25.207031 58.589844 24.292969 58.40625 C 23.375 58.222656 22.472656 57.996094 21.578125 57.726562 C 20.683594 57.457031 19.808594 57.140625 18.945312 56.785156 C 18.082031 56.425781 17.238281 56.027344 16.417969 55.589844 C 15.59375 55.148438 14.792969 54.667969 14.015625 54.152344 C 13.242188 53.632812 12.492188 53.078125 11.769531 52.484375 C 11.050781 51.890625 10.359375 51.265625 9.699219 50.605469 C 9.039062 49.945312 8.410156 49.253906 7.820312 48.535156 C 7.226562 47.8125 6.671875 47.0625 6.152344 46.285156 C 5.636719 45.511719 5.15625 44.710938 4.714844 43.886719 C 4.277344 43.0625 3.875 42.222656 3.519531 41.359375 C 3.164062 40.496094 2.847656 39.617188 2.578125 38.726562 C 2.304688 37.832031 2.078125 36.929688 1.898438 36.011719 C 1.714844 35.097656 1.578125 34.175781 1.488281 33.246094 C 1.394531 32.316406 1.351562 31.386719 1.351562 30.453125 C 1.351562 29.519531 1.394531 28.585938 1.488281 27.660156 C 1.578125 26.730469 1.714844 25.808594 1.898438 24.890625 C 2.078125 23.976562 2.304688 23.070312 2.578125 22.179688 C 2.847656 21.285156 3.164062 20.40625 3.519531 19.542969 C 3.875 18.683594 4.277344 17.839844 4.714844 17.015625 C 5.15625 16.191406 5.636719 15.394531 6.152344 14.617188 C 6.671875 13.839844 7.226562 13.09375 7.820312 12.371094 C 8.410156 11.648438 9.039062 10.957031 9.699219 10.296875 C 10.359375 9.636719 11.050781 9.011719 11.769531 8.417969 C 12.492188 7.828125 13.242188 7.273438 14.015625 6.753906 C 14.792969 6.234375 15.59375 5.753906 16.417969 5.316406 C 17.238281 4.875 18.082031 4.476562 18.945312 4.121094 C 19.808594 3.761719 20.683594 3.449219 21.578125 3.175781 C 22.472656 2.90625 23.375 2.679688 24.292969 2.496094 C 25.207031 2.316406 26.128906 2.179688 27.058594 2.085938 C 27.988281 1.996094 28.917969 1.949219 29.851562 1.949219 C 30.785156 1.949219 31.714844 1.996094 32.644531 2.085938 C 33.574219 2.179688 34.496094 2.316406 35.414062 2.496094 C 36.328125 2.679688 37.230469 2.90625 38.125 3.175781 C 39.019531 3.449219 39.898438 3.761719 40.757812 4.121094 C 41.621094 4.476562 42.464844 4.875 43.289062 5.316406 C 44.109375 5.753906 44.910156 6.234375 45.6875 6.753906 C 46.464844 7.273438 47.210938 7.828125 47.933594 8.417969 C 48.65625 9.011719 49.347656 9.636719 50.007812 10.296875 C 50.664062 10.957031 51.292969 11.648438 51.882812 12.371094 C 52.476562 13.09375 53.03125 13.839844 53.550781 14.617188 C 54.070312 15.394531 54.546875 16.191406 54.988281 17.015625 C 55.429688 17.839844 55.828125 18.683594 56.183594 19.542969 C 56.542969 20.40625 56.855469 21.285156 57.125 22.179688 C 57.398438 23.070312 57.625 23.976562 57.804688 24.890625 C 57.988281 25.808594 58.125 26.730469 58.214844 27.660156 C 58.308594 28.585938 58.355469 29.519531 58.355469 30.453125 Z M 58.355469 30.453125 " fill-opacity="1" fill-rule="nonzero"/><path fill="#9df4e6" d="M 58.355469 30.453125 C 58.355469 31.386719 58.308594 32.316406 58.214844 33.246094 C 58.125 34.175781 57.988281 35.097656 57.804688 36.011719 C 57.625 36.929688 57.398438 37.832031 57.125 38.726562 C 56.855469 39.617188 56.542969 40.496094 56.183594 41.359375 C 55.828125 42.222656 55.429688 43.0625 54.988281 43.886719 C 54.546875 44.710938 54.070312 45.511719 53.550781 46.285156 C 53.03125 47.0625 52.476562 47.8125 51.882812 48.535156 C 51.292969 49.253906 50.664062 49.945312 50.007812 50.605469 C 49.347656 51.265625 48.65625 51.890625 47.933594 52.484375 C 47.210938 53.078125 46.464844 53.632812 45.6875 54.152344 C 44.910156 54.667969 44.109375 55.148438 43.289062 55.589844 C 42.464844 56.027344 41.621094 56.425781 40.757812 56.785156 C 39.898438 57.140625 39.019531 57.457031 38.125 57.726562 C 37.230469 57.996094 36.328125 58.222656 35.414062 58.40625 C 34.496094 58.589844 33.574219 58.726562 32.644531 58.816406 C 31.714844 58.90625 30.785156 58.953125 29.851562 58.953125 C 28.917969 58.953125 27.988281 58.90625 27.058594 58.816406 C 26.128906 58.726562 25.207031 58.589844 24.292969 58.40625 C 23.375 58.222656 22.472656 57.996094 21.578125 57.726562 C 20.683594 57.457031 19.808594 57.140625 18.945312 56.785156 C 18.082031 56.425781 17.238281 56.027344 16.417969 55.589844 C 15.59375 55.148438 14.792969 54.667969 14.015625 54.152344 C 13.242188 53.632812 12.492188 53.078125 11.769531 52.484375 C 11.050781 51.890625 10.359375 51.265625 9.699219 50.605469 C 9.039062 49.945312 8.410156 49.253906 7.820312 48.535156 C 7.226562 47.8125 6.671875 47.0625 6.152344 46.285156 C 5.636719 45.511719 5.15625 44.710938 4.714844 43.886719 C 4.277344 43.0625 3.875 42.222656 3.519531 41.359375 C 3.164062 40.496094 2.847656 39.617188 2.578125 38.726562 C 2.304688 37.832031 2.078125 36.929688 1.898438 36.011719 C 1.714844 35.097656 1.578125 34.175781 1.488281 33.246094 C 1.394531 32.316406 1.351562 31.386719 1.351562 30.453125 C 1.351562 29.519531 1.394531 28.585938 1.488281 27.660156 C 1.578125 26.730469 1.714844 25.808594 1.898438 24.890625 C 2.078125 23.976562 2.304688 23.070312 2.578125 22.179688 C 2.847656 21.285156 3.164062 20.40625 3.519531 19.542969 C 3.875 18.683594 4.277344 17.839844 4.714844 17.015625 C 5.15625 16.191406 5.636719 15.394531 6.152344 14.617188 C 6.671875 13.839844 7.226562 13.09375 7.820312 12.371094 C 8.410156 11.648438 9.039062 10.957031 9.699219 10.296875 C 10.359375 9.636719 11.050781 9.011719 11.769531 8.417969 C 12.492188 7.828125 13.242188 7.273438 14.015625 6.753906 C 14.792969 6.234375 15.59375 5.753906 16.417969 5.316406 C 17.238281 4.875 18.082031 4.476562 18.945312 4.121094 C 19.808594 3.761719 20.683594 3.449219 21.578125 3.175781 C 22.472656 2.90625 23.375 2.679688 24.292969 2.496094 C 25.207031 2.316406 26.128906 2.179688 27.058594 2.085938 C 27.988281 1.996094 28.917969 1.949219 29.851562 1.949219 C 30.785156 1.949219 31.714844 1.996094 32.644531 2.085938 C 33.574219 2.179688 34.496094 2.316406 35.414062 2.496094 C 36.328125 2.679688 37.230469 2.90625 38.125 3.175781 C 39.019531 3.449219 39.898438 3.761719 40.757812 4.121094 C 41.621094 4.476562 42.464844 4.875 43.289062 5.316406 C 44.109375 5.753906 44.910156 6.234375 45.6875 6.753906 C 46.464844 7.273438 47.210938 7.828125 47.933594 8.417969 C 48.65625 9.011719 49.347656 9.636719 50.007812 10.296875 C 50.664062 10.957031 51.292969 11.648438 51.882812 12.371094 C 52.476562 13.09375 53.03125 13.839844 53.550781 14.617188 C 54.070312 15.394531 54.546875 16.191406 54.988281 17.015625 C 55.429688 17.839844 55.828125 18.683594 56.183594 19.542969 C 56.542969 20.40625 56.855469 21.285156 57.125 22.179688 C 57.398438 23.070312 57.625 23.976562 57.804688 24.890625 C 57.988281 25.808594 58.125 26.730469 58.214844 27.660156 C 58.308594 28.585938 58.355469 29.519531 58.355469 30.453125 Z M 58.355469 30.453125 " fill-opacity="1" fill-rule="nonzero"/></g><g clip-path="url(#b299baec79)"><g clip-path="url(#21022db976)"><path fill="#ffc089" d="M 55.113281 59.875 C 55.113281 60.382812 55.078125 60.890625 55.015625 61.394531 C 54.949219 61.898438 54.855469 62.402344 54.726562 62.898438 C 54.597656 63.398438 54.441406 63.890625 54.25 64.375 C 54.058594 64.863281 53.839844 65.339844 53.589844 65.808594 C 53.335938 66.277344 53.058594 66.738281 52.75 67.1875 C 52.4375 67.632812 52.101562 68.070312 51.738281 68.492188 C 51.375 68.914062 50.984375 69.320312 50.570312 69.714844 C 50.152344 70.105469 49.714844 70.484375 49.25 70.84375 C 48.785156 71.203125 48.300781 71.542969 47.792969 71.863281 C 47.289062 72.1875 46.761719 72.488281 46.214844 72.769531 C 45.671875 73.054688 45.109375 73.3125 44.53125 73.554688 C 43.953125 73.792969 43.363281 74.011719 42.757812 74.203125 C 42.152344 74.398438 41.535156 74.570312 40.90625 74.71875 C 40.28125 74.863281 39.644531 74.988281 39 75.085938 C 38.359375 75.1875 37.710938 75.261719 37.058594 75.3125 C 36.40625 75.359375 35.753906 75.386719 35.097656 75.386719 C 34.441406 75.386719 33.789062 75.359375 33.136719 75.3125 C 32.484375 75.261719 31.835938 75.1875 31.191406 75.085938 C 30.550781 74.988281 29.914062 74.863281 29.289062 74.71875 C 28.660156 74.570312 28.042969 74.398438 27.4375 74.203125 C 26.832031 74.011719 26.242188 73.792969 25.664062 73.554688 C 25.085938 73.3125 24.523438 73.054688 23.976562 72.769531 C 23.433594 72.488281 22.90625 72.1875 22.398438 71.863281 C 21.894531 71.542969 21.410156 71.203125 20.945312 70.84375 C 20.480469 70.484375 20.042969 70.105469 19.625 69.714844 C 19.210938 69.320312 18.820312 68.914062 18.457031 68.492188 C 18.089844 68.070312 17.753906 67.632812 17.445312 67.1875 C 17.136719 66.738281 16.855469 66.277344 16.605469 65.808594 C 16.355469 65.339844 16.136719 64.863281 15.945312 64.375 C 15.753906 63.890625 15.59375 63.398438 15.46875 62.898438 C 15.339844 62.402344 15.242188 61.898438 15.179688 61.394531 C 15.113281 60.890625 15.082031 60.382812 15.082031 59.875 C 15.082031 59.367188 15.113281 58.859375 15.179688 58.355469 C 15.242188 57.847656 15.339844 57.347656 15.46875 56.847656 C 15.59375 56.347656 15.753906 55.855469 15.945312 55.371094 C 16.136719 54.886719 16.355469 54.40625 16.605469 53.9375 C 16.855469 53.46875 17.136719 53.011719 17.445312 52.5625 C 17.753906 52.113281 18.089844 51.679688 18.457031 51.257812 C 18.820312 50.832031 19.210938 50.425781 19.625 50.035156 C 20.042969 49.640625 20.480469 49.265625 20.945312 48.90625 C 21.410156 48.546875 21.894531 48.207031 22.398438 47.882812 C 22.90625 47.5625 23.433594 47.257812 23.976562 46.976562 C 24.523438 46.695312 25.085938 46.433594 25.664062 46.195312 C 26.242188 45.953125 26.832031 45.738281 27.4375 45.542969 C 28.042969 45.347656 28.660156 45.179688 29.289062 45.03125 C 29.914062 44.882812 30.550781 44.757812 31.191406 44.660156 C 31.835938 44.5625 32.484375 44.488281 33.136719 44.4375 C 33.789062 44.386719 34.441406 44.363281 35.097656 44.363281 C 35.753906 44.363281 36.40625 44.386719 37.058594 44.4375 C 37.710938 44.488281 38.359375 44.5625 39 44.660156 C 39.644531 44.757812 40.28125 44.882812 40.90625 45.03125 C 41.535156 45.179688 42.152344 45.347656 42.757812 45.542969 C 43.363281 45.738281 43.953125 45.953125 44.53125 46.195312 C 45.109375 46.433594 45.671875 46.695312 46.214844 46.976562 C 46.761719 47.257812 47.289062 47.5625 47.792969 47.882812 C 48.300781 48.207031 48.785156 48.546875 49.25 48.90625 C 49.714844 49.265625 50.152344 49.640625 50.570312 50.035156 C 50.984375 50.425781 51.375 50.832031 51.738281 51.257812 C 52.101562 51.679688 52.4375 52.113281 52.75 52.5625 C 53.058594 53.011719 53.335938 53.46875 53.589844 53.9375 C 53.839844 54.40625 54.058594 54.886719 54.25 55.371094 C 54.441406 55.855469 54.597656 56.347656 54.726562 56.847656 C 54.855469 57.347656 54.949219 57.847656 55.015625 58.355469 C 55.078125 58.859375 55.113281 59.367188 55.113281 59.875 Z M 55.113281 59.875 " fill-opacity="1" fill-rule="nonzero"/></g></g><path fill="#d37a7a" d="M 29.078125 36.761719 L 34.621094 36.761719 C 34.804688 36.761719 34.976562 36.792969 35.144531 36.863281 C 35.3125 36.933594 35.460938 37.03125 35.589844 37.160156 C 35.71875 37.289062 35.816406 37.4375 35.886719 37.605469 C 35.953125 37.773438 35.988281 37.945312 35.988281 38.128906 L 35.988281 45.050781 C 35.988281 45.320312 35.964844 45.589844 35.910156 45.859375 C 35.855469 46.125 35.777344 46.382812 35.675781 46.636719 C 35.570312 46.886719 35.441406 47.125 35.292969 47.351562 C 35.140625 47.578125 34.96875 47.785156 34.777344 47.976562 C 34.585938 48.171875 34.375 48.34375 34.148438 48.492188 C 33.921875 48.644531 33.683594 48.773438 33.433594 48.875 C 33.183594 48.980469 32.921875 49.058594 32.65625 49.109375 C 32.390625 49.164062 32.121094 49.191406 31.847656 49.191406 C 31.578125 49.191406 31.308594 49.164062 31.042969 49.109375 C 30.773438 49.058594 30.515625 48.980469 30.265625 48.875 C 30.011719 48.773438 29.773438 48.644531 29.550781 48.492188 C 29.324219 48.34375 29.113281 48.171875 28.921875 47.976562 C 28.730469 47.785156 28.558594 47.578125 28.40625 47.351562 C 28.253906 47.125 28.128906 46.886719 28.023438 46.636719 C 27.917969 46.382812 27.839844 46.125 27.789062 45.859375 C 27.734375 45.589844 27.707031 45.324219 27.707031 45.050781 L 27.707031 38.128906 C 27.707031 37.945312 27.742188 37.773438 27.8125 37.605469 C 27.882812 37.4375 27.980469 37.289062 28.109375 37.160156 C 28.238281 37.03125 28.386719 36.933594 28.554688 36.863281 C 28.71875 36.792969 28.894531 36.761719 29.078125 36.761719 Z M 29.078125 36.761719 " fill-opacity="1" fill-rule="nonzero"/><path fill="#e58b89" d="M 22.5625 32.066406 C 22.5625 32.375 22.5 32.671875 22.382812 32.957031 C 22.265625 33.242188 22.097656 33.496094 21.878906 33.714844 C 21.660156 33.933594 21.40625 34.101562 21.121094 34.21875 C 20.835938 34.339844 20.539062 34.398438 20.230469 34.398438 C 18.941406 34.398438 17.894531 32.859375 17.894531 31.570312 C 17.894531 30.28125 18.941406 29.734375 20.230469 29.734375 C 20.539062 29.734375 20.835938 29.792969 21.121094 29.910156 C 21.40625 30.027344 21.660156 30.199219 21.878906 30.417969 C 22.097656 30.636719 22.265625 30.886719 22.382812 31.171875 C 22.5 31.457031 22.5625 31.757812 22.5625 32.066406 Z M 22.5625 32.066406 " fill-opacity="1" fill-rule="nonzero"/><path fill="#e58b89" d="M 42.90625 31.675781 C 42.90625 33.039062 41.800781 34.667969 40.4375 34.667969 C 40.113281 34.664062 39.804688 34.597656 39.503906 34.472656 C 39.207031 34.34375 38.941406 34.164062 38.714844 33.933594 C 38.488281 33.703125 38.3125 33.4375 38.1875 33.136719 C 38.0625 32.835938 38.003906 32.523438 38.003906 32.199219 C 38.003906 31.875 38.0625 31.5625 38.1875 31.261719 C 38.3125 30.964844 38.488281 30.699219 38.714844 30.464844 C 38.941406 30.234375 39.207031 30.058594 39.503906 29.929688 C 39.804688 29.804688 40.113281 29.738281 40.4375 29.734375 C 41.804688 29.734375 42.90625 30.316406 42.90625 31.675781 Z M 42.90625 31.675781 " fill-opacity="1" fill-rule="nonzero"/><path fill="#fda297" d="M 30.097656 45.113281 C 21.695312 46.191406 19.875 33.152344 19.757812 28.195312 C 19.621094 22.484375 24.386719 17.855469 30.097656 17.855469 C 35.808594 17.855469 40.574219 22.484375 40.4375 28.195312 C 40.316406 33.152344 39.609375 43.894531 30.097656 45.113281 Z M 30.097656 45.113281 " fill-opacity="1" fill-rule="nonzero"/><path fill="#18008b" d="M 20.011719 31.515625 C 20.011719 31.515625 18.070312 25.082031 18.683594 22.40625 C 19.292969 19.730469 22.441406 15.496094 29.707031 15.496094 C 37.222656 15.496094 39.386719 20.847656 40.4375 23.148438 C 41.492188 25.453125 40.179688 32.199219 40.179688 32.199219 C 40.179688 32.199219 39.121094 25.589844 37.632812 23.726562 C 36.140625 21.863281 28.246094 19.761719 28.144531 19.761719 C 28.046875 19.761719 20.609375 23.792969 20.609375 23.792969 Z M 20.011719 31.515625 " fill-opacity="1" fill-rule="nonzero"/><path fill="#18008b" d="M 24.753906 31.644531 C 24.753906 31.925781 24.703125 32.167969 24.609375 32.367188 C 24.515625 32.566406 24.398438 32.667969 24.265625 32.667969 C 24.132812 32.667969 24.015625 32.566406 23.921875 32.367188 C 23.828125 32.167969 23.78125 31.925781 23.78125 31.644531 C 23.78125 31.359375 23.828125 31.117188 23.921875 30.917969 C 24.015625 30.71875 24.132812 30.617188 24.265625 30.617188 C 24.398438 30.617188 24.515625 30.71875 24.609375 30.917969 C 24.703125 31.117188 24.753906 31.359375 24.753906 31.644531 Z M 24.753906 31.644531 " fill-opacity="1" fill-rule="nonzero"/><path fill="#18008b" d="M 32.109375 31.644531 C 32.109375 31.925781 32.0625 32.167969 31.96875 32.367188 C 31.875 32.566406 31.757812 32.667969 31.625 32.667969 C 31.488281 32.667969 31.375 32.566406 31.28125 32.367188 C 31.183594 32.167969 31.136719 31.925781 31.136719 31.644531 C 31.136719 31.359375 31.183594 31.117188 31.28125 30.917969 C 31.375 30.71875 31.488281 30.617188 31.625 30.617188 C 31.757812 30.617188 31.875 30.71875 31.96875 30.917969 C 32.0625 31.117188 32.109375 31.359375 32.109375 31.644531 Z M 32.109375 31.644531 " fill-opacity="1" fill-rule="nonzero"/><path fill="#18008b" d="M 28.175781 37.808594 C 28.167969 37.808594 28.15625 37.808594 28.148438 37.808594 C 27.652344 37.808594 27.285156 37.59375 27.039062 37.167969 C 26.648438 36.386719 27.292969 35.265625 27.371094 35.140625 C 27.410156 35.074219 27.472656 35.03125 27.546875 35.015625 C 27.625 34.996094 27.695312 35.007812 27.765625 35.046875 C 27.832031 35.089844 27.875 35.148438 27.898438 35.222656 C 27.917969 35.300781 27.90625 35.371094 27.867188 35.441406 C 27.722656 35.6875 27.347656 36.484375 27.558594 36.90625 C 27.59375 36.972656 27.699219 37.175781 28.203125 37.230469 C 28.382812 37.25 28.46875 37.351562 28.457031 37.53125 C 28.449219 37.710938 28.355469 37.804688 28.175781 37.808594 Z M 28.175781 37.808594 " fill-opacity="1" fill-rule="nonzero"/><path fill="#18008b" d="M 21.980469 30.296875 C 21.839844 30.296875 21.746094 30.230469 21.703125 30.09375 C 21.660156 29.957031 21.695312 29.847656 21.8125 29.769531 C 21.863281 29.734375 23.0625 28.925781 25.058594 29.347656 C 25.132812 29.367188 25.195312 29.410156 25.234375 29.476562 C 25.277344 29.542969 25.289062 29.613281 25.273438 29.691406 C 25.257812 29.769531 25.21875 29.828125 25.152344 29.871094 C 25.085938 29.917969 25.015625 29.929688 24.9375 29.917969 C 23.964844 29.660156 23.03125 29.769531 22.144531 30.246094 C 22.09375 30.28125 22.039062 30.296875 21.980469 30.296875 Z M 21.980469 30.296875 " fill-opacity="1" fill-rule="nonzero"/><path fill="#18008b" d="M 33.910156 30.296875 C 33.851562 30.296875 33.796875 30.28125 33.746094 30.246094 C 32.859375 29.769531 31.925781 29.660156 30.953125 29.917969 C 30.871094 29.9375 30.796875 29.925781 30.730469 29.882812 C 30.660156 29.835938 30.617188 29.773438 30.597656 29.695312 C 30.582031 29.613281 30.597656 29.539062 30.640625 29.472656 C 30.6875 29.40625 30.75 29.363281 30.832031 29.347656 C 32.828125 28.925781 34.023438 29.734375 34.078125 29.769531 C 34.195312 29.847656 34.230469 29.957031 34.1875 30.09375 C 34.144531 30.230469 34.054688 30.296875 33.910156 30.296875 Z M 33.910156 30.296875 " fill-opacity="1" fill-rule="nonzero"/><path fill="#18008b" d="M 29.851562 41.003906 C 29.769531 41.003906 29.699219 40.976562 29.644531 40.917969 C 29.585938 40.863281 29.558594 40.792969 29.558594 40.714844 C 29.558594 40.632812 29.585938 40.5625 29.644531 40.507812 C 29.699219 40.449219 29.769531 40.421875 29.851562 40.421875 C 30.097656 40.421875 30.308594 40.335938 30.484375 40.160156 C 30.660156 39.984375 30.75 39.773438 30.75 39.523438 C 30.746094 39.441406 30.773438 39.371094 30.828125 39.3125 C 30.886719 39.253906 30.957031 39.222656 31.039062 39.222656 C 31.121094 39.222656 31.191406 39.253906 31.25 39.3125 C 31.304688 39.371094 31.332031 39.441406 31.328125 39.523438 C 31.328125 39.71875 31.292969 39.910156 31.214844 40.089844 C 31.140625 40.269531 31.035156 40.429688 30.894531 40.570312 C 30.757812 40.707031 30.597656 40.816406 30.417969 40.890625 C 30.234375 40.964844 30.046875 41.003906 29.851562 41.003906 Z M 29.851562 41.003906 " fill-opacity="1" fill-rule="nonzero"/><path fill="#ffffff" d="M 22.804688 35.167969 C 22.523438 35.167969 22.246094 35.140625 21.96875 35.085938 C 21.695312 35.03125 21.429688 34.949219 21.171875 34.84375 C 20.910156 34.738281 20.664062 34.605469 20.433594 34.449219 C 20.199219 34.292969 19.984375 34.117188 19.785156 33.917969 C 19.589844 33.722656 19.410156 33.503906 19.257812 33.273438 C 19.101562 33.039062 18.96875 32.792969 18.863281 32.535156 C 18.753906 32.277344 18.671875 32.007812 18.621094 31.734375 C 18.566406 31.460938 18.539062 31.183594 18.539062 30.902344 C 18.539062 30.621094 18.566406 30.34375 18.621094 30.070312 C 18.671875 29.796875 18.753906 29.527344 18.863281 29.269531 C 18.96875 29.011719 19.101562 28.765625 19.257812 28.53125 C 19.410156 28.300781 19.589844 28.085938 19.785156 27.886719 C 19.984375 27.6875 20.199219 27.511719 20.433594 27.355469 C 20.664062 27.199219 20.910156 27.070312 21.171875 26.960938 C 21.429688 26.855469 21.695312 26.773438 21.96875 26.71875 C 22.246094 26.664062 22.523438 26.636719 22.804688 26.636719 C 23.082031 26.636719 23.359375 26.664062 23.636719 26.71875 C 23.910156 26.773438 24.175781 26.855469 24.433594 26.960938 C 24.695312 27.070312 24.941406 27.199219 25.171875 27.355469 C 25.40625 27.511719 25.621094 27.6875 25.820312 27.886719 C 26.015625 28.085938 26.195312 28.300781 26.351562 28.53125 C 26.503906 28.765625 26.636719 29.011719 26.742188 29.269531 C 26.851562 29.527344 26.933594 29.796875 26.988281 30.070312 C 27.042969 30.34375 27.070312 30.621094 27.070312 30.902344 C 27.066406 31.183594 27.039062 31.460938 26.984375 31.734375 C 26.929688 32.007812 26.851562 32.277344 26.742188 32.535156 C 26.636719 32.792969 26.503906 33.039062 26.347656 33.273438 C 26.191406 33.503906 26.015625 33.71875 25.816406 33.917969 C 25.621094 34.117188 25.40625 34.292969 25.171875 34.449219 C 24.9375 34.605469 24.691406 34.734375 24.433594 34.84375 C 24.175781 34.949219 23.910156 35.03125 23.632812 35.085938 C 23.359375 35.140625 23.082031 35.167969 22.804688 35.167969 Z M 22.804688 27.21875 C 22.3125 27.21875 21.84375 27.3125 21.394531 27.5 C 20.941406 27.6875 20.542969 27.953125 20.199219 28.296875 C 19.851562 28.644531 19.585938 29.042969 19.398438 29.492188 C 19.210938 29.945312 19.117188 30.414062 19.117188 30.902344 C 19.117188 31.390625 19.210938 31.863281 19.398438 32.3125 C 19.585938 32.765625 19.851562 33.164062 20.199219 33.507812 C 20.542969 33.855469 20.941406 34.121094 21.394531 34.308594 C 21.84375 34.496094 22.316406 34.585938 22.804688 34.585938 C 23.292969 34.585938 23.761719 34.492188 24.214844 34.308594 C 24.664062 34.121094 25.0625 33.855469 25.410156 33.507812 C 25.753906 33.164062 26.019531 32.765625 26.207031 32.3125 C 26.394531 31.863281 26.488281 31.390625 26.488281 30.902344 C 26.488281 30.414062 26.394531 29.945312 26.207031 29.492188 C 26.019531 29.042969 25.753906 28.644531 25.40625 28.296875 C 25.0625 27.953125 24.664062 27.6875 24.210938 27.5 C 23.761719 27.3125 23.292969 27.21875 22.804688 27.21875 Z M 22.804688 27.21875 " fill-opacity="1" fill-rule="nonzero"/><path fill="#ffffff" d="M 33.085938 35.167969 C 32.808594 35.167969 32.53125 35.140625 32.253906 35.085938 C 31.980469 35.03125 31.714844 34.949219 31.453125 34.84375 C 31.195312 34.738281 30.949219 34.605469 30.71875 34.449219 C 30.484375 34.292969 30.269531 34.117188 30.070312 33.917969 C 29.875 33.722656 29.695312 33.503906 29.539062 33.273438 C 29.386719 33.039062 29.253906 32.792969 29.144531 32.535156 C 29.039062 32.277344 28.957031 32.007812 28.902344 31.734375 C 28.847656 31.460938 28.820312 31.183594 28.820312 30.902344 C 28.820312 30.621094 28.847656 30.34375 28.902344 30.070312 C 28.957031 29.796875 29.039062 29.527344 29.144531 29.269531 C 29.253906 29.011719 29.386719 28.765625 29.539062 28.53125 C 29.695312 28.300781 29.875 28.085938 30.070312 27.886719 C 30.269531 27.6875 30.484375 27.511719 30.71875 27.355469 C 30.949219 27.199219 31.195312 27.070312 31.453125 26.960938 C 31.714844 26.855469 31.980469 26.773438 32.253906 26.71875 C 32.53125 26.664062 32.808594 26.636719 33.085938 26.636719 C 33.367188 26.636719 33.644531 26.664062 33.917969 26.71875 C 34.195312 26.773438 34.460938 26.855469 34.71875 26.960938 C 34.980469 27.070312 35.222656 27.199219 35.457031 27.355469 C 35.691406 27.511719 35.90625 27.6875 36.105469 27.886719 C 36.300781 28.085938 36.480469 28.300781 36.632812 28.53125 C 36.789062 28.765625 36.921875 29.011719 37.027344 29.269531 C 37.136719 29.527344 37.214844 29.796875 37.269531 30.070312 C 37.324219 30.34375 37.351562 30.621094 37.351562 30.902344 C 37.351562 31.183594 37.324219 31.460938 37.269531 31.734375 C 37.214844 32.007812 37.132812 32.277344 37.027344 32.535156 C 36.917969 32.792969 36.789062 33.039062 36.632812 33.273438 C 36.476562 33.503906 36.300781 33.71875 36.101562 33.917969 C 35.90625 34.117188 35.6875 34.292969 35.457031 34.449219 C 35.222656 34.605469 34.976562 34.734375 34.71875 34.84375 C 34.460938 34.949219 34.195312 35.03125 33.917969 35.085938 C 33.644531 35.140625 33.367188 35.167969 33.085938 35.167969 Z M 33.085938 27.21875 C 32.597656 27.21875 32.128906 27.3125 31.675781 27.5 C 31.226562 27.6875 30.828125 27.953125 30.480469 28.296875 C 30.136719 28.644531 29.871094 29.042969 29.683594 29.492188 C 29.496094 29.945312 29.402344 30.414062 29.402344 30.902344 C 29.402344 31.390625 29.496094 31.863281 29.683594 32.3125 C 29.871094 32.765625 30.136719 33.164062 30.480469 33.507812 C 30.828125 33.855469 31.226562 34.121094 31.675781 34.308594 C 32.128906 34.496094 32.597656 34.585938 33.085938 34.585938 C 33.578125 34.585938 34.046875 34.492188 34.496094 34.308594 C 34.949219 34.121094 35.347656 33.855469 35.691406 33.507812 C 36.039062 33.164062 36.304688 32.765625 36.492188 32.3125 C 36.679688 31.863281 36.773438 31.390625 36.773438 30.902344 C 36.769531 30.414062 36.675781 29.945312 36.492188 29.492188 C 36.304688 29.042969 36.035156 28.644531 35.691406 28.296875 C 35.347656 27.953125 34.949219 27.6875 34.496094 27.5 C 34.046875 27.3125 33.574219 27.21875 33.085938 27.21875 Z M 33.085938 27.21875 " fill-opacity="1" fill-rule="nonzero"/><path fill="#ffffff" d="M 29.152344 31.835938 C 29.074219 31.835938 29.003906 31.808594 28.949219 31.75 C 28.890625 31.695312 28.863281 31.625 28.863281 31.546875 C 28.863281 31.292969 28.773438 31.078125 28.597656 30.902344 C 28.417969 30.722656 28.203125 30.636719 27.953125 30.636719 C 27.699219 30.636719 27.484375 30.722656 27.308594 30.902344 C 27.128906 31.078125 27.042969 31.292969 27.042969 31.546875 C 27.039062 31.625 27.007812 31.691406 26.953125 31.746094 C 26.894531 31.796875 26.828125 31.824219 26.75 31.824219 C 26.671875 31.824219 26.605469 31.796875 26.546875 31.746094 C 26.492188 31.691406 26.460938 31.625 26.460938 31.546875 C 26.460938 31.347656 26.496094 31.15625 26.574219 30.976562 C 26.648438 30.792969 26.757812 30.628906 26.898438 30.492188 C 27.035156 30.351562 27.199219 30.242188 27.382812 30.167969 C 27.5625 30.089844 27.753906 30.054688 27.953125 30.054688 C 28.148438 30.054688 28.339844 30.089844 28.523438 30.167969 C 28.707031 30.242188 28.867188 30.351562 29.007812 30.492188 C 29.148438 30.628906 29.253906 30.792969 29.332031 30.976562 C 29.40625 31.15625 29.445312 31.347656 29.445312 31.546875 C 29.445312 31.625 29.414062 31.695312 29.359375 31.75 C 29.300781 31.808594 29.234375 31.835938 29.152344 31.835938 Z M 29.152344 31.835938 " fill-opacity="1" fill-rule="nonzero"/><path fill="#555ce4" d="M 40.730469 20.746094 C 40.730469 20.746094 41.238281 18.117188 36.71875 15.816406 C 32.230469 13.53125 26.804688 14.238281 23.714844 15.257812 C 21.351562 16.039062 7.878906 21.273438 18.9375 23.996094 C 20.261719 24.320312 22.628906 24.320312 25.128906 24.144531 C 24.691406 24.402344 24.453125 24.632812 24.496094 24.804688 C 24.621094 25.28125 26.84375 25.109375 29.457031 24.425781 C 31.285156 23.945312 32.824219 23.339844 33.539062 22.859375 C 33.757812 22.792969 33.972656 22.714844 34.179688 22.625 C 34.6875 24.554688 38.292969 27.042969 39.105469 26.738281 C 39.921875 26.433594 44.492188 23.03125 40.730469 20.746094 Z M 40.730469 20.746094 " fill-opacity="1" fill-rule="nonzero"/></svg>